<?xml version="1.0" encoding="UTF-8" standalone="no"?>
<svg
   viewBox="0 0 512 512"
   version="1.1"
   id="svg924"
   sodipodi:docname="arrow-right-to-bracket-solid.svg"
   inkscape:version="1.1.1 (3bf5ae0d25, 2021-09-20)"
   xmlns:inkscape="http://www.inkscape.org/namespaces/inkscape"
   xmlns:sodipodi="http://sodipodi.sourceforge.net/DTD/sodipodi-0.dtd"
   xmlns="http://www.w3.org/2000/svg"
   xmlns:svg="http://www.w3.org/2000/svg">
  <defs
     id="defs928" />
  <sodipodi:namedview
     id="namedview926"
     pagecolor="#ffffff"
     bordercolor="#666666"
     borderopacity="1.0"
     inkscape:pageshadow="2"
     inkscape:pageopacity="0.0"
     inkscape:pagecheckerboard="0"
     showgrid="false"
     inkscape:zoom="0.75683594"
     inkscape:cx="256.33032"
     inkscape:cy="255.66968"
     inkscape:window-width="1920"
     inkscape:window-height="986"
     inkscape:window-x="-11"
     inkscape:window-y="-11"
     inkscape:window-maximized="1"
     inkscape:current-layer="svg924" />
  <!--! Font Awesome Pro 6.4.2 by @fontawesome - https://fontawesome.com License - https://fontawesome.com/license (Commercial License) Copyright 2023 Fonticons, Inc. -->
  <path
     d="m 286.84387,187.33419 h 24.52646 c 6.78309,0 12.26322,5.48013 12.26322,12.26323 v 98.1058 c 0,6.7831 -5.48013,12.26323 -12.26322,12.26323 h -24.52646 c -6.78309,0 -12.26322,5.48013 -12.26322,12.26323 0,6.78309 5.48013,12.26322 12.26322,12.26322 h 24.52646 c 20.31097,0 36.78967,-16.47871 36.78967,-36.78968 v -98.1058 c 0,-20.31097 -16.4787,-36.78968 -36.78967,-36.78968 h -24.52646 c -6.78309,0 -12.26322,5.48013 -12.26322,12.26322 0,6.7831 5.48013,12.26323 12.26322,12.26323 z m -3.60232,69.97703 c 4.79032,-4.79032 4.79032,-12.5698 0,-17.36013 l -49.0529,-49.0529 c -4.79032,-4.79032 -12.56981,-4.79032 -17.36013,0 -4.79033,4.79032 -4.79033,12.5698 0,17.36013 l 28.12878,28.12877 h -80.74568 c -6.7831,0 -12.26323,5.48013 -12.26323,12.26323 0,6.7831 5.48013,12.26322 12.26323,12.26322 h 80.74568 l -28.12878,28.12878 c -4.79033,4.79033 -4.79033,12.56981 0,17.36013 4.79032,4.79032 12.56981,4.79032 17.36013,0 l 49.0529,-49.05291 z"
     id="path922"
     style="stroke-width:0.383226" />
</svg>
