<?xml version="1.0" encoding="UTF-8" standalone="no"?>
<svg
   viewBox="0 0 576 512"
   version="1.1"
   id="svg4"
   sodipodi:docname="delete-left-solid.svg"
   inkscape:version="1.1.1 (3bf5ae0d25, 2021-09-20)"
   xmlns:inkscape="http://www.inkscape.org/namespaces/inkscape"
   xmlns:sodipodi="http://sodipodi.sourceforge.net/DTD/sodipodi-0.dtd"
   xmlns="http://www.w3.org/2000/svg"
   xmlns:svg="http://www.w3.org/2000/svg">
  <defs
     id="defs8" />
  <sodipodi:namedview
     id="namedview6"
     pagecolor="#ffffff"
     bordercolor="#666666"
     borderopacity="1.0"
     inkscape:pageshadow="2"
     inkscape:pageopacity="0.0"
     inkscape:pagecheckerboard="0"
     showgrid="false"
     inkscape:zoom="0.75683594"
     inkscape:cx="155.91226"
     inkscape:cy="287.38065"
     inkscape:window-width="1920"
     inkscape:window-height="986"
     inkscape:window-x="-11"
     inkscape:window-y="-11"
     inkscape:window-maximized="1"
     inkscape:current-layer="svg4" />
  <!--! Font Awesome Pro 6.4.2 by @fontawesome - https://fontawesome.com License - https://fontawesome.com/license (Commercial License) Copyright 2023 Fonticons, Inc. -->
  <path
     d="m 405.55355,194.65176 c 0,-15.21823 -12.37289,-27.59111 -27.59111,-27.59111 H 245.74066 c -7.32889,0 -14.356,2.88844 -19.52933,8.06177 l -64.92534,64.96845 c -2.58666,2.58667 -4.05244,6.07867 -4.05244,9.74311 0,3.66445 1.46578,7.15645 4.05244,9.74311 l 64.92534,64.96845 c 5.17333,5.17333 12.20044,8.06178 19.52933,8.06178 h 132.22178 c 15.21822,0 27.59111,-12.37289 27.59111,-27.59111 z m -131.48889,20.26222 c 4.05245,-4.05244 10.60533,-4.05244 14.61467,0 l 20.26222,20.26223 20.26222,-20.26223 c 4.05245,-4.05244 10.60534,-4.05244 14.61467,0 4.00933,4.05245 4.05244,10.60534 0,14.61467 l -20.26222,20.26222 20.26222,20.26222 c 4.05244,4.05245 4.05244,10.60534 0,14.61467 -4.05245,4.00933 -10.60533,4.05245 -14.61467,0 l -20.26222,-20.26222 -20.26222,20.26222 c -4.05245,4.05245 -10.60534,4.05245 -14.61467,0 -4.00933,-4.05244 -4.05244,-10.60533 0,-14.61467 l 20.26222,-20.26222 -20.26222,-20.26222 c -4.05244,-4.05244 -4.05244,-10.60533 0,-14.61467 z"
     id="path2"
     style="stroke-width:0.431111" />
</svg>
