<?xml version="1.0" encoding="UTF-8" standalone="no"?>
<svg
   viewBox="0 0 512 512"
   version="1.1"
   id="svg847"
   sodipodi:docname="shuffle-solid.svg"
   inkscape:version="1.1.1 (3bf5ae0d25, 2021-09-20)"
   xmlns:inkscape="http://www.inkscape.org/namespaces/inkscape"
   xmlns:sodipodi="http://sodipodi.sourceforge.net/DTD/sodipodi-0.dtd"
   xmlns="http://www.w3.org/2000/svg"
   xmlns:svg="http://www.w3.org/2000/svg">
  <defs
     id="defs851" />
  <sodipodi:namedview
     id="namedview849"
     pagecolor="#ffffff"
     bordercolor="#666666"
     borderopacity="1.0"
     inkscape:pageshadow="2"
     inkscape:pageopacity="0.0"
     inkscape:pagecheckerboard="0"
     showgrid="false"
     inkscape:zoom="1.0703276"
     inkscape:cx="255.99638"
     inkscape:cy="256.46352"
     inkscape:window-width="1920"
     inkscape:window-height="986"
     inkscape:window-x="-11"
     inkscape:window-y="-11"
     inkscape:window-maximized="1"
     inkscape:current-layer="svg847" />
  <!--! Font Awesome Pro 6.4.2 by @fontawesome - https://fontawesome.com License - https://fontawesome.com/license (Commercial License) Copyright 2023 Fonticons, Inc. -->
  <path
     d="m 312.96582,165.52862 c 4.4695,-1.86229 9.57218,-0.81941 12.9988,2.56997 l 23.83735,23.83734 c 2.23475,2.23476 3.50111,5.25167 3.50111,8.41757 0,3.1659 -1.26636,6.18281 -3.50111,8.41756 l -23.83735,23.83735 c -3.42662,3.42663 -8.5293,4.43226 -12.9988,2.56997 -4.46951,-1.86229 -7.37468,-6.18282 -7.37468,-11.02478 v -11.84418 h -11.91868 c -3.76183,0 -7.30019,1.75055 -9.53494,4.76747 l -15.79224,21.04391 -14.89834,-19.85204 11.6207,-15.49428 c 6.7415,-9.0135 17.35657,-14.30241 28.60482,-14.30241 h 11.91868 V 176.5534 c 0,-4.80472 2.90517,-9.16249 7.37468,-11.02478 z m -89.31557,92.48147 14.89834,19.85205 -11.6207,15.49427 c -6.7415,9.0135 -17.35657,14.30241 -28.60482,14.30241 h -23.83735 c -6.59252,0 -11.91868,-5.32616 -11.91868,-11.91867 0,-6.59252 5.32616,-11.91868 11.91868,-11.91868 h 23.83735 c 3.76183,0 7.30019,-1.75055 9.53494,-4.76747 z m 102.27713,70.02222 c -3.42662,3.42662 -8.52931,4.43225 -12.99881,2.56996 -4.4695,-1.86229 -7.37468,-6.18281 -7.37468,-11.02477 v -11.91868 h -11.88143 c -11.24825,0 -21.86332,-5.28891 -28.60482,-14.30241 l -57.20963,-76.27952 c -2.23475,-3.01692 -5.77311,-4.76747 -9.53494,-4.76747 h -23.83735 c -6.59252,0 -11.91868,-5.32616 -11.91868,-11.91868 0,-6.59251 5.32616,-11.91867 11.91868,-11.91867 h 23.83735 c 11.24825,0 21.86332,5.28891 28.60482,14.30241 l 57.20963,76.27952 c 2.23475,3.01692 5.77311,4.76747 9.53494,4.76747 h 11.91868 V 271.9028 c 0,-4.80472 2.90517,-9.16248 7.37468,-11.02478 4.4695,-1.86229 9.57218,-0.81941 12.9988,2.56997 l 23.83735,23.83735 c 2.23475,2.23475 3.50111,5.25166 3.50111,8.41756 0,3.1659 -1.26636,6.18281 -3.50111,8.41757 l -23.83735,23.83734 z"
     id="path845"
     style="stroke-width:0.372459" />
</svg>
